<?xml version="1.0" encoding="UTF-8"?>
<!DOCTYPE svg PUBLIC "-//W3C//DTD SVG 1.1//EN" "http://www.w3.org/Graphics/SVG/1.1/DTD/svg11.dtd">
<svg xmlns="http://www.w3.org/2000/svg" version="1.1" width="296px" height="264px" style="shape-rendering:geometricPrecision; text-rendering:geometricPrecision; image-rendering:optimizeQuality; fill-rule:evenodd; clip-rule:evenodd" xmlns:xlink="http://www.w3.org/1999/xlink">
<g><path style="opacity:0.969" fill="#87001b" d="M 218.5,119.5 C 216.359,119.749 214.193,120.083 212,120.5C 201.243,119.679 190.41,119.179 179.5,119C 179,118.5 178.5,118 178,117.5C 177.333,84.1667 177.333,50.8333 178,17.5C 178.5,17 179,16.5 179.5,16C 192.5,15.3333 205.5,15.3333 218.5,16C 219,16.5 219.5,17 220,17.5C 220.667,50.8333 220.667,84.1667 220,117.5C 219.283,118.044 218.783,118.711 218.5,119.5 Z"/></g>
<g><path style="opacity:0.995" fill="#28fe01" d="M 126.5,41.5 C 139.746,41.1773 152.913,41.5106 166,42.5C 166.667,67.5 166.667,92.5 166,117.5C 165.5,118 165,118.5 164.5,119C 151.788,119.814 139.121,119.647 126.5,118.5C 125.177,92.7676 125.177,67.1009 126.5,41.5 Z"/></g>
<g><path style="opacity:0.96" fill="#87001b" d="M 73.5,67.5 C 86.5043,67.3334 99.5043,67.5001 112.5,68C 113,68.5 113.5,69 114,69.5C 114.667,85.5 114.667,101.5 114,117.5C 113.5,118 113,118.5 112.5,119C 101.923,119.179 91.4234,119.679 81,120.5C 77.773,120.047 74.773,119.047 72,117.5C 71.3333,101.5 71.3333,85.5 72,69.5C 72.7172,68.9558 73.2172,68.2891 73.5,67.5 Z"/></g>
<g><path style="opacity:0.122" fill="#8b0018" d="M 218.5,119.5 C 219.833,120.167 219.833,120.167 218.5,119.5 Z"/></g>
<g><path style="opacity:1" fill="#7d2517" d="M 74.5,127.5 C 73.1667,129.167 73.1667,130.833 74.5,132.5C 71.4816,132.665 68.4816,132.498 65.5,132C 64.1667,130.667 64.1667,129.333 65.5,128C 68.4816,127.502 71.4816,127.335 74.5,127.5 Z"/></g>
<g><path style="opacity:1" fill="#29fe00" d="M 81.5,127.5 C 124.833,127.5 168.167,127.5 211.5,127.5C 211.953,128.458 212.619,129.292 213.5,130C 212.619,130.708 211.953,131.542 211.5,132.5C 168.167,132.5 124.833,132.5 81.5,132.5C 81.0472,131.542 80.3805,130.708 79.5,130C 80.3805,129.292 81.0472,128.458 81.5,127.5 Z"/></g>
<g><path style="opacity:1" fill="#7d2617" d="M 218.5,132.5 C 219.833,130.833 219.833,129.167 218.5,127.5C 221.536,126.255 224.869,126.255 228.5,127.5C 228.714,129.144 228.38,130.644 227.5,132C 224.518,132.498 221.518,132.665 218.5,132.5 Z"/></g>
<g><path style="opacity:1" fill="#58800d" d="M 218.5,127.5 C 219.833,129.167 219.833,130.833 218.5,132.5C 217.833,132.5 217.167,132.5 216.5,132.5C 216.608,130.486 215.942,128.82 214.5,127.5C 215.833,126.167 217.167,126.167 218.5,127.5 Z"/></g>
<g><path style="opacity:1" fill="#58810c" d="M 74.5,127.5 C 75.1667,127.5 75.8333,127.5 76.5,127.5C 76.3915,129.514 77.0582,131.18 78.5,132.5C 77.1667,132.5 75.8333,132.5 74.5,132.5C 73.1667,130.833 73.1667,129.167 74.5,127.5 Z"/></g>
<g><path style="opacity:1" fill="#3ec805" d="M 76.5,127.5 C 78.1667,127.5 79.8333,127.5 81.5,127.5C 81.0472,128.458 80.3805,129.292 79.5,130C 80.3805,130.708 81.0472,131.542 81.5,132.5C 80.5,132.5 79.5,132.5 78.5,132.5C 77.0582,131.18 76.3915,129.514 76.5,127.5 Z"/></g>
<g><path style="opacity:1" fill="#3fc705" d="M 211.5,127.5 C 212.5,127.5 213.5,127.5 214.5,127.5C 215.942,128.82 216.608,130.486 216.5,132.5C 214.833,132.5 213.167,132.5 211.5,132.5C 211.953,131.542 212.619,130.708 213.5,130C 212.619,129.292 211.953,128.458 211.5,127.5 Z"/></g>
<g><path style="opacity:0.039" fill="#7f0018" d="M 69.5,140.5 C 70.8333,141.167 70.8333,141.167 69.5,140.5 Z"/></g>
<g><path style="opacity:0.97" fill="#87001a" d="M 71.5,141.5 C 74.4548,140.841 77.6215,140.508 81,140.5C 91.4234,141.321 101.923,141.821 112.5,142C 113,142.5 113.5,143 114,143.5C 115.338,176.824 115.672,210.158 115,243.5C 114.5,244 114,244.5 113.5,245C 100.167,245.667 86.8333,245.667 73.5,245C 73,244.5 72.5,244 72,243.5C 71.3333,210.167 71.3333,176.833 72,143.5C 74.1676,142.178 74.0009,141.511 71.5,141.5 Z"/></g>
<g><path style="opacity:0.994" fill="#28fd02" d="M 125.5,141.5 C 138.883,141.185 152.216,141.518 165.5,142.5C 166.19,167.013 166.857,191.513 167.5,216C 167.415,217.107 167.081,218.107 166.5,219C 152.925,219.822 139.425,219.656 126,218.5C 124.943,192.795 124.776,167.128 125.5,141.5 Z"/></g>
<g><path style="opacity:0.962" fill="#87001a" d="M 178.5,141.5 C 191.837,141.333 205.171,141.5 218.5,142C 219,142.5 219.5,143 220,143.5C 220.667,159.5 220.667,175.5 220,191.5C 219.5,192 219,192.5 218.5,193C 205.167,193.667 191.833,193.667 178.5,193C 178,192.5 177.5,192 177,191.5C 176.333,175.5 176.333,159.5 177,143.5C 177.717,142.956 178.217,142.289 178.5,141.5 Z"/></g>
</svg>
